<svg width="113" height="71" viewBox="0 0 113 71" fill="none" xmlns="http://www.w3.org/2000/svg">
<path d="M34.9583 18.8704C37.2919 18.8505 39.6086 19.2682 41.7884 20.1018C40.1853 12.0544 37.7128 7.13243 34.9449 7.13611H34.9419C32.1747 7.14146 29.7162 12.0684 28.1335 20.1179C30.3105 19.2795 32.6255 18.8563 34.9583 18.8704Z" fill="url(#paint0_linear_603_2)"/>
<path d="M35.1206 56.9075L31.5986 56.9121C32.4871 62.4255 33.7433 63.4569 35.1319 63.4549C36.5206 63.4529 37.768 62.4178 38.6445 56.9031L35.1206 56.9075Z" fill="url(#paint1_linear_603_2)"/>
<path d="M43.6838 41.2277C43.5397 37.1086 43.2546 32.7798 42.7873 28.2643C42.5478 25.9501 42.274 23.6975 41.966 21.5068C37.4586 19.7656 32.4633 19.7715 27.9599 21.5232C27.6595 23.7349 27.3919 26.0086 27.1571 28.3443C26.7021 32.8939 26.4278 37.2568 26.2926 41.4104C22.4021 44.2873 19.7158 49.7442 19.7248 56.9028L26.1903 56.8944C27.3732 56.8944 28.0774 56.5933 28.0774 55.3867L28.0733 55.3639L35.0055 55.3552L42.1644 55.3462C42.1644 56.6238 42.8408 56.8737 44.0287 56.872L50.5186 56.864C50.5086 49.5685 47.7025 44.018 43.6838 41.2277ZM34.964 23.6117C35.4957 23.611 36.0157 23.7679 36.4582 24.0627C36.9007 24.3575 37.2458 24.7769 37.4499 25.2679C37.6541 25.7588 37.708 26.2993 37.605 26.8209C37.502 27.3425 37.2465 27.8219 36.871 28.1984C36.4956 28.5748 36.0169 28.8315 35.4955 28.9359C34.9742 29.0403 34.4336 28.9878 33.9421 28.7849C33.4506 28.5821 33.0303 28.238 32.7343 27.7963C32.4384 27.3546 32.2801 26.835 32.2794 26.3033C32.2786 25.5904 32.561 24.9064 33.0644 24.4017C33.5678 23.8969 34.2511 23.6127 34.964 23.6117ZM34.9754 32.3694C35.507 32.3687 36.0269 32.5256 36.4693 32.8206C36.9117 33.1154 37.2567 33.5345 37.4608 34.0256C37.6648 34.5164 37.7187 35.057 37.6157 35.5785C37.5126 36.1 37.2572 36.5791 36.8817 36.9554C36.5063 37.3321 36.0277 37.5887 35.5064 37.6931C34.9851 37.7974 34.4446 37.7446 33.9532 37.5419C33.4617 37.3391 33.0415 36.9952 32.7456 36.5533C32.4497 36.1117 32.2914 35.5922 32.2908 35.0606C32.29 34.3478 32.5723 33.6637 33.0758 33.1592C33.5792 32.6544 34.2625 32.3703 34.9754 32.3694ZM34.9934 46.5032C34.4618 46.5039 33.9419 46.347 33.4995 46.052C33.0571 45.7572 32.7121 45.3381 32.508 44.847C32.304 44.3562 32.2501 43.8156 32.3531 43.2941C32.4562 42.7726 32.7116 42.2935 33.0871 41.9168C33.4625 41.5405 33.9411 41.2839 34.4624 41.1795C34.9837 41.0752 35.5242 41.1277 36.0156 41.3307C36.507 41.5335 36.9273 41.8774 37.2232 42.3193C37.5191 42.7609 37.6774 43.2804 37.678 43.8119C37.6785 44.1649 37.6094 44.5145 37.4747 44.841C37.34 45.1671 37.1423 45.4639 36.893 45.7137C36.6437 45.9636 36.3476 46.162 36.0216 46.2975C35.6956 46.433 35.3465 46.5029 34.9934 46.5032Z" fill="url(#paint2_linear_603_2)"/>
<path d="M34.967 24.7327C34.5553 24.7392 34.1628 24.9075 33.8742 25.201C33.5855 25.4947 33.424 25.89 33.4246 26.3018C33.4251 26.7135 33.5876 27.1085 33.877 27.4013C34.1663 27.6942 34.5594 27.8614 34.971 27.8669C35.3866 27.8664 35.785 27.7007 36.0786 27.4065C36.3721 27.1122 36.5367 26.7134 36.5361 26.2978C36.5356 25.8822 36.37 25.4838 36.0757 25.1903C35.7815 24.8968 35.3826 24.7322 34.967 24.7327Z" fill="url(#paint3_linear_603_2)"/>
<path d="M34.9784 33.4904H34.9754C34.5637 33.4967 34.1711 33.665 33.8825 33.9587C33.5939 34.2524 33.4324 34.6478 33.4329 35.0593C33.4335 35.4711 33.5959 35.8662 33.8853 36.1589C34.1747 36.4519 34.5677 36.6192 34.9794 36.6246C35.395 36.6242 35.7935 36.4586 36.0871 36.1643C36.3807 35.8702 36.5454 35.4711 36.545 35.0556C36.5445 34.6398 36.379 34.2414 36.0847 33.948C35.7905 33.6543 35.3917 33.4897 34.976 33.49L34.9784 33.4904Z" fill="url(#paint4_linear_603_2)"/>
<path d="M34.9894 42.2484H34.9878C34.5761 42.2547 34.1835 42.423 33.8949 42.7167C33.6063 43.0104 33.4448 43.4058 33.4453 43.8173C33.4458 44.2291 33.6084 44.6242 33.8977 44.9169C34.1871 45.2099 34.5801 45.3772 34.9918 45.3826C35.4074 45.3819 35.8058 45.2166 36.0993 44.9222C36.3929 44.6279 36.5575 44.2291 36.557 43.8136C36.5565 43.3981 36.391 42.9997 36.0967 42.706C35.8025 42.4126 35.4037 42.248 34.9881 42.2484H34.9894Z" fill="url(#paint5_linear_603_2)"/>
<path d="M0.000569005 35.2588C0.000869963 35.2588 0.00111417 35.259 0.00111499 35.2593C0.0223791 43.0391 2.63993 50.5931 7.44536 56.7427C12.2509 62.8924 18.9742 67.2919 26.5661 69.2545C34.158 71.2172 42.1916 70.6326 49.4133 67.5921C55.6326 64.9736 60.9489 60.6604 64.7631 55.1832C65.6108 53.9659 64.7279 52.3599 63.247 52.2746C62.5321 52.2334 61.8627 52.5803 61.45 53.1654C58.8562 56.8428 55.4978 59.9327 51.596 62.2239C46.7924 65.0353 41.3246 66.5371 35.747 66.577C30.1694 66.6169 24.6803 65.1933 19.8364 62.4508C14.9926 59.7084 10.9663 55.7445 8.16576 50.9611C5.36529 46.1777 3.89026 40.745 3.89026 35.2139C3.89026 29.6829 5.36529 24.2502 8.16576 19.4668C10.9663 14.6837 14.9926 10.7196 19.8364 7.97684C24.6803 5.23465 30.1694 3.81111 35.747 3.85112C41.3246 3.89059 46.7924 5.39252 51.596 8.20392C55.6039 10.5575 59.0369 13.7528 61.6573 17.5603C62.0686 18.1579 62.7471 18.5138 63.4713 18.4716C64.9414 18.3858 65.823 16.7989 64.9971 15.5798C61.2208 10.0054 55.9011 5.59782 49.6475 2.90821C42.409 -0.20488 34.3313 -0.8396 26.6889 1.10513C19.0466 3.04932 12.2747 7.46214 7.44204 13.6467C2.60943 19.8307 -0.00895854 27.4346 2.30295e-05 35.2583C2.33753e-05 35.2586 0.000267717 35.2588 0.000569005 35.2588Z" fill="url(#paint6_linear_603_2)"/>
<path d="M49.1759 37.6901V37.3708C49.1759 36.2878 49.3333 35.2835 49.648 34.3579C49.9627 33.423 50.4162 32.6131 51.0086 31.9282C51.601 31.2339 52.3184 30.6971 53.1607 30.3176C54.003 29.9288 54.9471 29.7344 55.9931 29.7344C57.0483 29.7344 57.9971 29.9288 58.8394 30.3176C59.6909 30.6971 60.4129 31.2339 61.0053 31.9282C61.607 32.6131 62.0652 33.423 62.3799 34.3579C62.6946 35.2835 62.8519 36.2878 62.8519 37.3708V37.6901C62.8519 38.7731 62.6946 39.7774 62.3799 40.703C62.0652 41.6286 61.607 42.4386 61.0053 43.1328C60.4129 43.8177 59.6956 44.3546 58.8533 44.7434C58.0202 45.1229 57.0761 45.3126 56.0209 45.3126C54.9657 45.3126 54.0169 45.1229 53.1746 44.7434C52.3323 44.3546 51.6103 43.8177 51.0086 43.1328C50.4162 42.4386 49.9627 41.6286 49.648 40.703C49.3333 39.7774 49.1759 38.7731 49.1759 37.6901ZM51.7445 37.3708V37.6901C51.7445 38.4399 51.8324 39.148 52.0083 39.8144C52.1842 40.4716 52.448 41.0548 52.7997 41.5639C53.1607 42.0729 53.6096 42.4756 54.1465 42.7718C54.6833 43.0587 55.3081 43.2022 56.0209 43.2022C56.7243 43.2022 57.3399 43.0587 57.8675 42.7718C58.4043 42.4756 58.8486 42.0729 59.2004 41.5639C59.5521 41.0548 59.8159 40.4716 59.9918 39.8144C60.1769 39.148 60.2695 38.4399 60.2695 37.6901V37.3708C60.2695 36.6303 60.1769 35.9315 59.9918 35.2743C59.8159 34.6078 59.5475 34.0201 59.1865 33.511C58.8347 32.9926 58.3904 32.5853 57.8536 32.2891C57.326 31.9929 56.7058 31.8448 55.9931 31.8448C55.2896 31.8448 54.6695 31.9929 54.1326 32.2891C53.605 32.5853 53.1607 32.9926 52.7997 33.511C52.448 34.0201 52.1842 34.6078 52.0083 35.2743C51.8324 35.9315 51.7445 36.6303 51.7445 37.3708Z" fill="url(#paint7_linear_603_2)"/>
<path d="M79.392 45.3265H76.8234V28.7208C76.8234 27.6379 77.0178 26.7261 77.4065 25.9856C77.8046 25.2359 78.3738 24.6713 79.1143 24.2917C79.8548 23.903 80.7341 23.7086 81.7523 23.7086C82.0485 23.7086 82.3447 23.7271 82.6409 23.7641C82.9464 23.8012 83.2426 23.8567 83.5295 23.9308L83.3907 26.0273C83.1963 25.981 82.9741 25.9486 82.7242 25.9301C82.4836 25.9116 82.2429 25.9023 82.0022 25.9023C81.4561 25.9023 80.9841 26.0134 80.586 26.2356C80.1973 26.4484 79.9011 26.7632 79.6974 27.1797C79.4938 27.5962 79.392 28.1099 79.392 28.7208V45.3265ZM82.5854 30.3036V32.2752H74.4492V30.3036H82.5854Z" fill="url(#paint8_linear_603_2)"/>
<path d="M92.2311 45.3126C91.1852 45.3126 90.2364 45.1367 89.3848 44.785C88.5425 44.424 87.8159 43.9196 87.205 43.2716C86.6033 42.6237 86.1405 41.8554 85.8166 40.9668C85.4926 40.0782 85.3306 39.1063 85.3306 38.0511V37.468C85.3306 36.2462 85.5111 35.1586 85.8721 34.2052C86.2331 33.2425 86.7237 32.428 87.3438 31.7615C87.964 31.0951 88.6675 30.5906 89.4542 30.2482C90.241 29.9057 91.0556 29.7344 91.8979 29.7344C92.9716 29.7344 93.8972 29.9196 94.6747 30.2898C95.4615 30.6601 96.1048 31.1784 96.6047 31.8448C97.1045 32.502 97.4747 33.2796 97.7154 34.1774C97.9561 35.066 98.0764 36.0379 98.0764 37.0931V38.2455H86.8579V36.149H95.5078V35.9546C95.4708 35.2882 95.3319 34.6402 95.0913 34.0108C94.8599 33.3814 94.4896 32.863 93.9805 32.4558C93.4714 32.0485 92.7772 31.8448 91.8979 31.8448C91.3147 31.8448 90.7779 31.9698 90.2873 32.2197C89.7967 32.4604 89.3756 32.8214 89.0238 33.3027C88.6721 33.784 88.399 34.3718 88.2047 35.066C88.0103 35.7602 87.9131 36.5609 87.9131 37.468V38.0511C87.9131 38.7639 88.0103 39.4349 88.2047 40.0644C88.4083 40.6845 88.6999 41.2306 89.0794 41.7027C89.4681 42.1748 89.9356 42.545 90.4817 42.8134C91.0371 43.0819 91.6665 43.2161 92.3699 43.2161C93.2771 43.2161 94.0453 43.031 94.6747 42.6607C95.3042 42.2905 95.8549 41.7953 96.327 41.1751L97.882 42.4108C97.558 42.9014 97.1461 43.3688 96.6463 43.8131C96.1465 44.2574 95.5309 44.6184 94.7997 44.8961C94.0777 45.1738 93.2215 45.3126 92.2311 45.3126Z" fill="url(#paint9_linear_603_2)"/>
<path d="M106.976 45.3126C105.93 45.3126 104.982 45.1367 104.13 44.785C103.288 44.424 102.561 43.9196 101.95 43.2716C101.348 42.6237 100.886 41.8554 100.562 40.9668C100.238 40.0782 100.076 39.1063 100.076 38.0511V37.468C100.076 36.2462 100.256 35.1586 100.617 34.2052C100.978 33.2425 101.469 32.428 102.089 31.7615C102.709 31.0951 103.413 30.5906 104.199 30.2482C104.986 29.9057 105.801 29.7344 106.643 29.7344C107.717 29.7344 108.642 29.9196 109.42 30.2898C110.207 30.6601 110.85 31.1784 111.35 31.8448C111.85 32.502 112.22 33.2796 112.461 34.1774C112.701 35.066 112.822 36.0379 112.822 37.0931V38.2455H101.603V36.149H110.253V35.9546C110.216 35.2882 110.077 34.6402 109.836 34.0108C109.605 33.3814 109.235 32.863 108.726 32.4558C108.217 32.0485 107.522 31.8448 106.643 31.8448C106.06 31.8448 105.523 31.9698 105.032 32.2197C104.542 32.4604 104.121 32.8214 103.769 33.3027C103.417 33.784 103.144 34.3718 102.95 35.066C102.755 35.7602 102.658 36.5609 102.658 37.468V38.0511C102.658 38.7639 102.755 39.4349 102.95 40.0644C103.153 40.6845 103.445 41.2306 103.824 41.7027C104.213 42.1748 104.681 42.545 105.227 42.8134C105.782 43.0819 106.412 43.2161 107.115 43.2161C108.022 43.2161 108.79 43.031 109.42 42.6607C110.049 42.2905 110.6 41.7953 111.072 41.1751L112.627 42.4108C112.303 42.9014 111.891 43.3688 111.391 43.8131C110.892 44.2574 110.276 44.6184 109.545 44.8961C108.823 45.1738 107.967 45.3126 106.976 45.3126Z" fill="url(#paint10_linear_603_2)"/>
<path d="M69.3053 45.2293H66.7367V28.6237C66.7367 27.5407 66.9311 26.629 67.3198 25.8885C67.7179 25.1388 68.2871 24.5741 69.0276 24.1946C69.7681 23.8059 70.6474 23.6115 71.6656 23.6115C71.9618 23.6115 72.258 23.63 72.5542 23.667C72.8597 23.704 73.1559 23.7596 73.4428 23.8336L73.304 25.9302C73.1096 25.8839 72.8874 25.8515 72.6375 25.833C72.3969 25.8145 72.1562 25.8052 71.9155 25.8052C71.3694 25.8052 70.8974 25.9163 70.4993 26.1384C70.1106 26.3513 69.8144 26.666 69.6107 27.0826C69.4071 27.4991 69.3053 28.0128 69.3053 28.6237V45.2293ZM72.4987 30.2065V32.1781H64.3625V30.2065H72.4987Z" fill="url(#paint11_linear_603_2)"/>
<defs>
<linearGradient id="paint0_linear_603_2" x1="34.961" y1="62.4643" x2="34.961" y2="19.6376" gradientUnits="userSpaceOnUse">
<stop stop-opacity="0.6"/>
<stop offset="1" stop-color="#995000"/>
</linearGradient>
<linearGradient id="paint1_linear_603_2" x1="35.1216" y1="62.472" x2="35.1216" y2="19.6431" gradientUnits="userSpaceOnUse">
<stop stop-opacity="0.6"/>
<stop offset="1" stop-color="#995000"/>
</linearGradient>
<linearGradient id="paint2_linear_603_2" x1="35.1217" y1="62.4807" x2="35.1217" y2="19.6547" gradientUnits="userSpaceOnUse">
<stop stop-opacity="0.6"/>
<stop offset="1" stop-color="#995000"/>
</linearGradient>
<linearGradient id="paint3_linear_603_2" x1="34.9804" y1="62.4687" x2="34.9804" y2="19.6396" gradientUnits="userSpaceOnUse">
<stop stop-color="#995000"/>
<stop offset="1" stop-color="#FFEDD5"/>
</linearGradient>
<linearGradient id="paint4_linear_603_2" x1="34.989" y1="62.469" x2="34.989" y2="19.6416" gradientUnits="userSpaceOnUse">
<stop stop-color="#995000"/>
<stop offset="1" stop-color="#FED7AA"/>
</linearGradient>
<linearGradient id="paint5_linear_603_2" x1="35.0012" y1="62.4704" x2="35.0012" y2="19.6413" gradientUnits="userSpaceOnUse">
<stop stop-color="#995000"/>
<stop offset="1" stop-color="#FFEDD5"/>
</linearGradient>
<linearGradient id="paint6_linear_603_2" x1="67" y1="35" x2="17" y2="35" gradientUnits="userSpaceOnUse">
<stop stop-color="#995000"/>
<stop offset="1"/>
</linearGradient>
<linearGradient id="paint7_linear_603_2" x1="125.5" y1="38.5" x2="49" y2="38" gradientUnits="userSpaceOnUse">
<stop/>
<stop offset="1" stop-color="#995000"/>
</linearGradient>
<linearGradient id="paint8_linear_603_2" x1="125.5" y1="38.5" x2="49" y2="38" gradientUnits="userSpaceOnUse">
<stop/>
<stop offset="1" stop-color="#995000"/>
</linearGradient>
<linearGradient id="paint9_linear_603_2" x1="125.5" y1="38.5" x2="49" y2="38" gradientUnits="userSpaceOnUse">
<stop/>
<stop offset="1" stop-color="#995000"/>
</linearGradient>
<linearGradient id="paint10_linear_603_2" x1="125.5" y1="38.5" x2="49" y2="38" gradientUnits="userSpaceOnUse">
<stop/>
<stop offset="1" stop-color="#995000"/>
</linearGradient>
<linearGradient id="paint11_linear_603_2" x1="125.5" y1="38.5" x2="49" y2="38" gradientUnits="userSpaceOnUse">
<stop/>
<stop offset="1" stop-color="#995000"/>
</linearGradient>
</defs>
</svg>
